<?xml version="1.0" standalone="no"?><!DOCTYPE svg PUBLIC "-//W3C//DTD SVG 1.1//EN" "http://www.w3.org/Graphics/SVG/1.1/DTD/svg11.dtd"><svg t="1717046588164" class="icon" viewBox="0 0 1024 1024" version="1.1" xmlns="http://www.w3.org/2000/svg" p-id="3140" xmlns:xlink="http://www.w3.org/1999/xlink" width="200" height="200"><path d="M476.8 766.4h12.8c27.2 0 46.4-14.4 46.4-35.2V292.8C531.2 272 512 256 489.6 256h-12.8l-276.8 43.2c-22.4 6.4-46.4 22.4-46.4 44.8v331.2c0 16 20.8 38.4 48 44.8l275.2 46.4z m-216-150.4c-22.4 0-43.2-9.6-56-27.2-12.8-17.6-19.2-38.4-17.6-60.8 0-22.4 4.8-43.2 17.6-60.8 12.8-17.6 33.6-27.2 56-27.2s43.2 9.6 56 27.2c12.8 17.6 19.2 38.4 17.6 60.8 0 22.4-4.8 43.2-17.6 60.8-14.4 17.6-35.2 27.2-56 27.2z m214.4-1.6l-19.2-48h-67.2l-19.2 48h-30.4l72-176h24l33.6 83.2 38.4 92.8h-32z" p-id="3141" fill="#13227a"></path><path d="M260.8 468.8c-14.4 0-27.2 6.4-33.6 17.6-6.4 12.8-11.2 25.6-9.6 40 0 14.4 3.2 27.2 11.2 40 6.4 12.8 19.2 19.2 33.6 19.2 14.4 0 27.2-6.4 33.6-19.2 8-12.8 11.2-25.6 9.6-40 0-14.4-3.2-27.2-9.6-40-9.6-11.2-22.4-17.6-35.2-17.6zM398.4 539.2h48l-24-57.6zM833.6 256H667.2c-16 0-27.2 12.8-27.2 27.2 0 16 12.8 28.8 28.8 28.8h160c27.2 0 48 20.8 48 48s-20.8 48-48 48h-160c-16 0-27.2 12.8-27.2 27.2 0 16 12.8 28.8 28.8 28.8h160c27.2 0 48 20.8 48 48s-20.8 48-48 48h-160c-16 0-27.2 12.8-27.2 27.2 0 16 12.8 28.8 28.8 28.8h160c27.2 0 48 20.8 48 48s-20.8 48-48 48H672c-16 0-28.8 12.8-28.8 28.8S656 768 670.4 768h171.2c54.4 0 99.2-41.6 99.2-94.4V350.4c-8-46.4-46.4-94.4-107.2-94.4z" p-id="3142" fill="#13227a"></path><path d="M508.8 838.4h-20.8l-313.6-52.8c-52.8-12.8-92.8-54.4-92.8-96V328c0-51.2 44.8-84.8 91.2-96h1.6l316.8-48h17.6c49.6 0 92.8 35.2 100.8 83.2V752c0 49.6-43.2 86.4-100.8 86.4z m-16-48h14.4c30.4 0 52.8-16 52.8-38.4V272c-4.8-24-27.2-41.6-52.8-41.6h-16l-310.4 48c-25.6 6.4-52.8 24-52.8 48V688c0 17.6 22.4 41.6 54.4 49.6l310.4 52.8z" p-id="3143" fill="#13227a"></path></svg>